<?xml version="1.0" encoding="utf-8"?>
<!-- Generator: Adobe Illustrator 16.0.0, SVG Export Plug-In . SVG Version: 6.00 Build 0)  -->
<!DOCTYPE svg PUBLIC "-//W3C//DTD SVG 1.1//EN" "http://www.w3.org/Graphics/SVG/1.1/DTD/svg11.dtd">
<svg version="1.1" id="Layer_1" xmlns="http://www.w3.org/2000/svg" xmlns:xlink="http://www.w3.org/1999/xlink" x="0px" y="0px"
	 width="357.256px" height="72.171px" viewBox="0 0 357.256 72.171" style="enable-background:new 0 0 357.256 72.171;"
	 xml:space="preserve">
<style type="text/css">
<![CDATA[
	.st0{opacity:0.25;}
	.st1{opacity:0.95;}
	.st2{fill:#848484;}
	.st3{clip-path:url(#SVGID_2_);fill:none;stroke:#000000;stroke-width:3.5;stroke-miterlimit:10;}
	.st4{fill:#F9ED26;}
	.st5{opacity:0.9;}
	.st6{fill:#FEE000;}
	.st7{fill:none;stroke:#000000;stroke-miterlimit:10;}
	.st8{fill:#FFFFFF;}
	.st9{fill:#ffffff;}
	.st10{fill:#353535;}
]]>
</style>
<g>
	<g>
		<path class="st9" d="M0,70.614V10.701C0,8.756,0.716,7.103,2.147,5.74c1.432-1.361,3.17-2.042,5.215-2.042h43.762v11.477h-36.81
			v14.395h27.403v4.475c0,1.945-0.716,3.599-2.147,4.96c-1.432,1.362-3.17,2.043-5.215,2.043H14.314v29.567H0z"/>
		<path class="st9" d="M61.431,70.614V10.701c0-1.945,0.716-3.599,2.147-4.961c1.432-1.361,3.17-2.042,5.215-2.042h7.157v54.467
			h34.355v12.449H61.431z"/>
		<path class="st9" d="M261.592,47.466c-0.684,7.781-3.751,13.878-9.202,18.285c-5.592,4.279-12.953,6.42-22.086,6.42
			c-10.634,0-18.746-3.046-24.335-9.143c-5.592-5.836-8.384-14.459-8.384-25.872c0-11.672,2.862-20.425,8.589-26.261
			c5.859-6.094,14.314-9.143,25.357-9.143c8.998,0,16.155,2.14,21.472,6.419c5.042,4.152,7.905,9.988,8.589,17.508h-8.793
			c-3.272,0-5.592-1.362-6.953-4.085c-0.955-1.685-2.115-3.177-3.477-4.475c-2.729-1.945-6.339-2.918-10.838-2.918
			c-6.272,0-11.113,1.945-14.52,5.836c-3.271,3.891-4.908,9.599-4.908,17.118c0,7.265,1.637,12.839,4.908,16.729
			c3.135,4.021,7.838,6.03,14.11,6.03c4.361,0,7.976-1.036,10.838-3.112c2.589-1.945,4.429-5.058,5.521-9.337H261.592z"/>
		<path class="st9" d="M287.032,45.077v25.537h-14.52V10.701c0-1.945,0.716-3.599,2.147-4.961c1.432-1.361,3.17-2.042,5.215-2.042
			h7.157v23.428l24.402-23.428h20.2l-32.866,31.507l36.32,35.409h-21.587L287.032,45.077z"/>
		<path class="st9" d="M347.304,59.915h6.952v10.699h-11.247V64C343.009,61.277,344.44,59.915,347.304,59.915z"/>
		<g class="st5">
			<g>
				<g>
					<path class="st6" d="M152.233,0c-19.884,0-36,16.117-36,36.001s16.116,36.001,36,36.001s36-16.117,36-36.001
						S172.117,0,152.233,0z M162.7,61.408c-1.298-2.33-2.845-4.502-4.607-6.477l4.683-4.872
						C165.387,54.886,164.253,58.94,162.7,61.408z M166.108,41.356l-10.667,10.889c-1.958-1.779-4.121-3.341-6.437-4.66
						l18.429-19.184C170.734,34.498,168.058,39.366,166.108,41.356z M167.434,22.176l-22.525,23.543
						c-5.602-2.524-7.146-2.255-8.796-2.682c-1.523-0.396-11.868,6.882-11.868,6.882s6.421-6.767,7.89-8.315
						c1.468-1.549,0.99-3.073,0.99-3.073c-0.197-5.398,3.863-7.108,6.053-7.804c2.188-0.696,7.559,1.779,7.559,1.779l21.862-23.299
						C171.973,15.265,169.359,20.163,167.434,22.176z"/>
				</g>
			</g>
		</g>
	</g>
</g>
</svg>
