<?xml version="1.0" encoding="UTF-8" standalone="no"?>
<!-- Generator: Adobe Illustrator 16.0.0, SVG Export Plug-In . SVG Version: 6.00 Build 0)  -->

<svg
   xmlns:dc="http://purl.org/dc/elements/1.1/"
   xmlns:cc="http://creativecommons.org/ns#"
   xmlns:rdf="http://www.w3.org/1999/02/22-rdf-syntax-ns#"
   xmlns:svg="http://www.w3.org/2000/svg"
   xmlns="http://www.w3.org/2000/svg"
   xmlns:sodipodi="http://sodipodi.sourceforge.net/DTD/sodipodi-0.dtd"
   xmlns:inkscape="http://www.inkscape.org/namespaces/inkscape"
   version="1.1"
   id="Layer_1"
   x="0px"
   y="0px"
   width="185.181"
   height="185.18201"
   viewBox="0 0 185.181 185.18201"
   xml:space="preserve"
   sodipodi:docname="logo.svg"
   inkscape:version="0.92.2 5c3e80d, 2017-08-06"><metadata
     id="metadata131"><rdf:RDF><cc:Work
         rdf:about=""><dc:format>image/svg+xml</dc:format><dc:type
           rdf:resource="http://purl.org/dc/dcmitype/StillImage" /><dc:title></dc:title></cc:Work></rdf:RDF></metadata><defs
     id="defs129" /><sodipodi:namedview
     pagecolor="#ffffff"
     bordercolor="#666666"
     borderopacity="1"
     objecttolerance="10"
     gridtolerance="10"
     guidetolerance="10"
     inkscape:pageopacity="0"
     inkscape:pageshadow="2"
     inkscape:window-width="2560"
     inkscape:window-height="1395"
     id="namedview127"
     showgrid="false"
     showborder="true"
     height="257.09799px"
     fit-margin-top="0"
     fit-margin-left="0"
     fit-margin-right="0"
     fit-margin-bottom="0"
     inkscape:zoom="4.5974688"
     inkscape:cx="101.385"
     inkscape:cy="56.632987"
     inkscape:window-x="0"
     inkscape:window-y="1"
     inkscape:window-maximized="1"
     inkscape:current-layer="Layer_1" /><style
     type="text/css"
     id="style114"><![CDATA[
	.st0{opacity:0.25;}
	.st1{opacity:0.95;}
	.st2{fill:#848484;}
	.st3{clip-path:url(#SVGID_2_);fill:none;stroke:#000000;stroke-width:3.5;stroke-miterlimit:10;}
	.st4{fill:#F9ED26;}
	.st5{opacity:0.9;}
	.st6{fill:#FEE000;}
	.st7{fill:none;stroke:#000000;stroke-miterlimit:10;}
	.st8{fill:#FFFFFF;}
	.st9{fill:#333333;}
	.st10{fill:#353535;}
]]></style><g
     id="g124"
     transform="translate(-4)"><g
       class="st5"
       id="g122"
       style="opacity:0.9"><g
         id="g120"><g
           id="g118"><path
             class="st6"
             d="M 96.59,0 C 45.451,0 4,41.453 4,92.59 c 0,51.141 41.451,92.592 92.59,92.592 51.141,0 92.591,-41.451 92.591,-92.592 C 189.181,41.453 147.73,0 96.59,0 Z m 26.922,157.939 c -3.336,-5.996 -7.313,-11.58 -11.848,-16.66 l 12.038,-12.531 c 6.72,12.416 3.804,22.842 -0.19,29.191 z m 8.764,-51.572 -27.435,28.002 c -5.036,-4.58 -10.598,-8.592 -16.555,-11.986 l 47.401,-49.338 c 8.489,15.68 1.606,28.201 -3.411,33.322 z m 3.41,-49.336 -57.937,60.555 c -14.399,-6.492 -18.376,-5.801 -22.62,-6.9 -3.918,-1.014 -30.523,17.703 -30.523,17.703 0,0 16.513,-17.407 20.29,-21.389 3.777,-3.984 2.549,-7.902 2.549,-7.902 -0.512,-13.887 9.938,-18.285 15.564,-20.072 5.625,-1.787 19.439,4.578 19.439,4.578 L 138.677,23.68 c 8.684,15.578 1.96,28.175 -2.991,33.351 z"
             id="path116"
             inkscape:connector-curvature="0"
             style="fill:#fee000" /></g></g></g></g></svg>